<svg width="48" height="48" viewBox="0 0 48 48" fill="none" xmlns="http://www.w3.org/2000/svg">
<path d="M7.23911 23.9919C7.23911 29.7325 11.136 34.7009 16.715 36.0657C16.9844 36.1315 17.1699 36.371 17.1699 36.6463V38.4481H30.8301V36.6463C30.8301 36.371 31.0156 36.1315 31.285 36.0657C33.9902 35.4085 36.3958 33.8603 38.1145 31.6703C39.8333 29.4803 40.7654 26.7758 40.7609 23.9919V22.651H7.23911V23.9919ZM29.7586 21.4538C30.2913 20.5738 30.8121 19.6879 31.3209 18.8259C31.1653 18.8379 31.0096 18.8439 30.854 18.8559L30.2853 18.8918C30.1536 18.8978 30.016 18.9097 29.8783 18.9157C29.3455 18.9456 28.7769 18.9696 28.1663 18.9935C28.0645 18.9935 27.9628 18.9995 27.861 19.0055C27.6994 19.0055 27.5377 19.0115 27.3701 19.0175L26.8374 19.0354C26.7416 19.0354 26.6398 19.0414 26.5441 19.0414C26.1849 19.8495 25.8317 20.6577 25.4905 21.4538H29.7586ZM39.0489 13.2649H39.0429L39.0369 13.2637C39.1737 13.205 39.2835 13.097 39.3445 12.9612C39.4054 12.8254 39.4132 12.6717 39.3661 12.5304C39.3409 12.4559 39.3011 12.3871 39.2492 12.3279C39.1973 12.2688 39.1342 12.2205 39.0636 12.1857C38.993 12.151 38.9162 12.1305 38.8377 12.1254C38.7592 12.1204 38.6804 12.1309 38.6059 12.1563L36.5647 12.8507C36.5306 12.8626 36.506 12.8878 36.4749 12.9045C36.4408 12.9243 36.4019 12.9369 36.3731 12.9656L36.3689 12.9698C36.3521 12.9848 36.3361 13.0008 36.3211 13.0177C36.3145 13.0249 36.3079 13.0297 36.3013 13.0374C36.2774 13.0614 36.2594 13.0913 36.2414 13.1212C36.2325 13.1362 36.2271 13.153 36.2199 13.1697C36.2139 13.1823 36.2025 13.1907 36.1977 13.2038C36.1935 13.2146 36.1965 13.226 36.1929 13.2368C36.1827 13.2592 36.1748 13.2827 36.1696 13.3068V13.3248C36.1636 13.3565 36.1666 13.3876 36.1666 13.4187C36.1666 13.4385 36.1624 13.4565 36.1642 13.4756C36.1696 13.5264 36.1815 13.5763 36.1995 13.6241C36.1935 13.6301 36.2055 13.636 36.2055 13.636C36.2097 13.6474 36.2175 13.657 36.2223 13.6678C36.2289 13.6815 36.2283 13.6977 36.2354 13.7115L37.1298 15.2966C37.1676 15.3664 37.219 15.428 37.2809 15.4778C37.3428 15.5276 37.414 15.5646 37.4904 15.5866C37.5667 15.6086 37.6467 15.6151 37.7256 15.6059C37.8045 15.5967 37.8808 15.5718 37.95 15.5328C38.0192 15.4938 38.08 15.4414 38.1287 15.3786C38.1775 15.3159 38.2132 15.2441 38.234 15.1674C38.2547 15.0907 38.2599 15.0106 38.2494 14.9319C38.2388 14.8531 38.2127 14.7773 38.1725 14.7087L37.9085 14.2406H37.9115C39.9707 14.6596 40.5873 15.0487 40.7549 15.1984C40.282 15.6653 37.7559 16.4315 32.4702 16.8685C34.0625 14.1329 35.2597 12.0078 35.4333 11.6726C35.7446 11.074 35.7985 10.3976 35.6009 9.75709C35.5019 9.44035 35.3408 9.1465 35.127 8.89266C34.9132 8.63882 34.6511 8.43005 34.3558 8.27854C33.7609 7.97372 33.0695 7.91656 32.4325 8.11953C31.7955 8.32251 31.2647 8.76915 30.9558 9.36201C30.854 9.56553 30.3572 10.6131 29.6568 12.1276L29.6556 12.1294C27.7719 12.0359 25.8861 11.9894 24 11.9899C22.1575 11.9899 6 12.0797 6 15.1954C6 16.5303 8.92956 17.4725 14.7001 18.0028L14.3499 18.2746C14.2868 18.3224 14.2338 18.3823 14.194 18.4508C14.1542 18.5192 14.1284 18.5949 14.118 18.6734C14.1076 18.7519 14.1129 18.8317 14.1336 18.9081C14.1543 18.9845 14.19 19.0561 14.2385 19.1187C14.2871 19.1812 14.3475 19.2335 14.4164 19.2726C14.4853 19.3116 14.5613 19.3366 14.6399 19.346C14.7185 19.3555 14.7983 19.3493 14.8744 19.3277C14.9506 19.3061 15.0218 19.2697 15.0838 19.2204L16.6599 17.9963C16.6659 17.9915 16.6683 17.9843 16.6743 17.9783C16.7 17.9562 16.7168 17.9268 16.7383 17.9005C16.8281 17.7927 16.8916 17.6658 16.8916 17.5234C16.8916 17.4321 16.8707 17.342 16.8305 17.2601C16.7904 17.1781 16.732 17.1064 16.6599 17.0505L15.0838 15.8269C14.9595 15.7286 14.8012 15.6836 14.6438 15.702C14.4863 15.7203 14.3426 15.8005 14.2443 15.9248C14.1459 16.0491 14.101 16.2074 14.1193 16.3648C14.1377 16.5223 14.2178 16.666 14.3421 16.7643C9.83645 16.3094 7.65993 15.6132 7.23791 15.1936C8.03226 14.3478 14.2296 13.1871 24 13.1871C25.7443 13.1871 27.4599 13.2278 29.1175 13.3026C28.5907 14.4519 27.9921 15.7736 27.3761 17.1558H27.3342C24.9004 17.2328 22.4647 17.2268 20.0313 17.1379H20.0073C19.6841 17.1379 19.4207 17.3953 19.4087 17.7185C19.3967 18.0477 19.6541 18.3231 19.9894 18.3351C21.2883 18.383 22.6412 18.4069 24 18.4069C25.0176 18.4069 25.9514 18.3949 26.8374 18.371L27.3701 18.353C27.6455 18.347 27.9089 18.3351 28.1663 18.3291C28.9325 18.2992 29.6329 18.2692 30.2853 18.2273L30.854 18.1914C31.1533 18.1734 31.4466 18.1495 31.728 18.1315C38.5461 17.6347 42 16.653 42 15.1924C42 14.5878 41.5989 13.8994 39.0489 13.2649Z" fill="#FF6B94"/>
</svg>
